<svg width="21" height="23" viewBox="0 0 21 23" fill="none" xmlns="http://www.w3.org/2000/svg">
<g clip-path="url(#clip0_23_10204)">
<path d="M19.8687 17.924C19.5209 18.7275 19.1091 19.4672 18.6321 20.1472C17.9819 21.0743 17.4495 21.716 17.0392 22.0724C16.4032 22.6573 15.7217 22.9568 14.992 22.9739C14.4681 22.9739 13.8363 22.8248 13.1009 22.5224C12.3631 22.2214 11.6851 22.0724 11.0651 22.0724C10.4148 22.0724 9.71748 22.2214 8.97157 22.5224C8.22451 22.8248 7.6227 22.9824 7.16257 22.998C6.4628 23.0278 5.76529 22.7197 5.06907 22.0724C4.6247 21.6848 4.06888 21.0204 3.40304 20.0791C2.68864 19.0739 2.10131 17.9084 1.64118 16.5795C1.1484 15.1442 0.901367 13.7543 0.901367 12.4087C0.901367 10.8673 1.23443 9.53789 1.90155 8.42385C2.42585 7.529 3.12336 6.82312 3.99633 6.30493C4.86931 5.78674 5.81257 5.52267 6.82837 5.50578C7.38419 5.50578 8.11307 5.6777 9.01884 6.01559C9.92206 6.35462 10.502 6.52655 10.7563 6.52655C10.9464 6.52655 11.5906 6.32552 12.6828 5.92473C13.7157 5.55305 14.5874 5.39916 15.3015 5.45978C17.2365 5.61595 18.6903 6.37876 19.6572 7.75303C17.9265 8.80163 17.0704 10.2703 17.0875 12.1544C17.1031 13.622 17.6355 14.8432 18.6818 15.8129C19.156 16.2629 19.6855 16.6107 20.2747 16.8578C20.147 17.2283 20.0121 17.5832 19.8687 17.924ZM15.4307 0.460131C15.4307 1.61039 15.0104 2.68439 14.1728 3.67847C13.162 4.86023 11.9393 5.54311 10.6135 5.43536C10.5966 5.29736 10.5868 5.15213 10.5868 4.99951C10.5868 3.89526 11.0675 2.71349 11.9212 1.74724C12.3474 1.25801 12.8894 0.851218 13.5467 0.526714C14.2026 0.207053 14.823 0.0302728 15.4065 0C15.4236 0.153772 15.4307 0.307569 15.4307 0.460131Z" fill="black"/>
</g>
<defs>
<clipPath id="clip0_23_10204">
<rect width="20" height="23" fill="white" transform="translate(0.5)"/>
</clipPath>
</defs>
</svg>
