<svg width="25" height="23" viewBox="0 0 25 23" fill="none" xmlns="http://www.w3.org/2000/svg">
<g clip-path="url(#clip0_23_10198)">
<path d="M23.9014 11.5001C23.9014 5.14879 18.7526 6.10352e-05 12.4014 6.10352e-05C6.05009 6.10352e-05 0.901367 5.14879 0.901367 11.5001C0.901367 17.24 5.10675 21.9976 10.6045 22.8604V14.8243H7.68457V11.5001H10.6045V8.96647C10.6045 6.08428 12.3214 4.49225 14.9482 4.49225C16.2064 4.49225 17.5225 4.71686 17.5225 4.71686V7.54694H16.0723C14.6438 7.54694 14.1982 8.43341 14.1982 9.34285V11.5001H17.3877L16.8778 14.8243H14.1982V22.8604C19.696 21.9976 23.9014 17.24 23.9014 11.5001Z" fill="#1877F2"/>
</g>
<defs>
<clipPath id="clip0_23_10198">
<rect width="24" height="23" fill="white" transform="translate(0.5)"/>
</clipPath>
</defs>
</svg>
